<?xml version="1.0" standalone="no"?>
<!DOCTYPE svg PUBLIC "-//W3C//DTD SVG 20010904//EN"
 "http://www.w3.org/TR/2001/REC-SVG-20010904/DTD/svg10.dtd">
<svg version="1.0" xmlns="http://www.w3.org/2000/svg"
 width="256.000000pt" height="256.000000pt" viewBox="0 0 256.000000 256.000000"
 preserveAspectRatio="xMidYMid meet">

<g transform="translate(0.000000,256.000000) scale(0.100000,-0.100000)"
fill="#000000" stroke="none">
<path d="M0 1280 l0 -1280 1280 0 1280 0 0 1280 0 1280 -1280 0 -1280 0 0
-1280z m1145 967 c-117 -95 -210 -211 -305 -379 -24 -43 -45 -76 -47 -75 -2 2
15 38 36 80 22 42 37 77 33 77 -3 0 3 10 14 23 11 12 26 35 34 51 28 56 240
256 270 256 3 -1 -13 -15 -35 -33z m-295 -241 c0 -2 -8 -10 -17 -17 -16 -13
-17 -12 -4 4 13 16 21 21 21 13z m-40 -59 c0 -2 -12 -14 -27 -28 l-28 -24 24
28 c23 25 31 32 31 24z m-208 -240 c-165 -166 -215 -227 -185 -227 4 0 28 19
53 42 l45 43 -47 -50 c-37 -39 -46 -55 -41 -73 5 -22 6 -22 27 -5 21 18 21 18
3 -3 -17 -20 -17 -23 1 -64 l18 -43 23 36 c12 20 25 37 27 37 6 0 -2 -14 -28
-52 -21 -31 -22 -33 -5 -50 6 -8 21 -32 33 -53 11 -22 35 -66 53 -97 18 -32
31 -58 28 -58 -7 0 -108 137 -124 167 -6 12 -18 35 -26 50 -38 70 -76 176 -78
213 l-1 25 -8 -25 c-5 -15 -8 38 -9 132 -1 86 3 159 7 162 5 3 6 -9 4 -26 -4
-27 -2 -30 14 -25 18 7 18 6 2 -7 -10 -7 -18 -26 -18 -41 0 -25 2 -26 18 -14
16 13 16 12 1 -6 -14 -19 -15 -55 -1 -55 3 0 15 8 27 18 11 9 8 4 -8 -11 -20
-20 -26 -33 -22 -48 7 -20 7 -20 28 -2 20 16 20 16 -1 -8 -20 -23 -22 -59 -3
-59 3 0 89 83 191 185 102 102 187 185 190 185 3 0 -82 -87 -188 -193z m88
169 c0 -2 -8 -10 -17 -17 -16 -13 -17 -12 -4 4 13 16 21 21 21 13z m20 -19 c0
-2 -15 -16 -32 -33 l-33 -29 29 33 c28 30 36 37 36 29z m-280 -12 c0 -2 -10
-9 -22 -15 -22 -11 -22 -10 -4 4 21 17 26 19 26 11z m150 -9 c0 -2 -8 -10 -17
-17 -16 -13 -17 -12 -4 4 13 16 21 21 21 13z m60 0 c0 -2 -8 -10 -17 -17 -16
-13 -17 -12 -4 4 13 16 21 21 21 13z m120 1 c0 -2 -12 -14 -27 -28 l-28 -24
24 28 c23 25 31 32 31 24z m-170 -40 c0 -2 -10 -12 -22 -23 l-23 -19 19 23
c18 21 26 27 26 19z m-80 -11 c0 -2 -8 -10 -17 -17 -16 -13 -17 -12 -4 4 13
16 21 21 21 13z m110 -9 c0 -2 -17 -19 -37 -38 l-38 -34 34 38 c33 34 41 42
41 34z m-150 -21 c0 -2 -8 -10 -17 -17 -16 -13 -17 -12 -4 4 13 16 21 21 21
13z m70 1 c0 -2 -10 -12 -22 -23 l-23 -19 19 23 c18 21 26 27 26 19z m180 -1
c0 -2 -8 -10 -17 -17 -16 -13 -17 -12 -4 4 13 16 21 21 21 13z m-40 -9 c0 -2
-17 -19 -37 -38 l-38 -34 34 38 c33 34 41 42 41 34z m-190 -30 c0 -2 -10 -12
-22 -23 l-23 -19 19 23 c18 21 26 27 26 19z m190 -10 c0 -2 -10 -12 -22 -23
l-23 -19 19 23 c18 21 26 27 26 19z m-160 -20 c0 -2 -19 -21 -42 -42 l-43 -40
40 43 c36 39 45 47 45 39z m80 -30 c0 -2 -19 -21 -42 -42 l-43 -40 40 43 c36
39 45 47 45 39z m40 0 c0 -2 -10 -12 -22 -23 l-23 -19 19 23 c18 21 26 27 26
19z m-50 -61 c0 -2 -8 -10 -17 -17 -16 -13 -17 -12 -4 4 13 16 21 21 21 13z
m40 0 c0 -2 -8 -10 -17 -17 -16 -13 -17 -12 -4 4 13 16 21 21 21 13z m-30 -40
c0 -2 -8 -10 -17 -17 -16 -13 -17 -12 -4 4 13 16 21 21 21 13z m-50 -9 c0 -2
-10 -12 -22 -23 l-23 -19 19 23 c18 21 26 27 26 19z m-40 -50 c0 -2 -10 -12
-22 -23 l-23 -19 19 23 c18 21 26 27 26 19z m40 -11 c0 -2 -8 -10 -17 -17 -16
-13 -17 -12 -4 4 13 16 21 21 21 13z m510 -37 c0 -5 -11 -9 -25 -9 -24 0 -25
-2 -27 -72 l-2 -73 -3 73 c-4 69 -5 72 -28 72 -14 0 -25 4 -25 9 0 5 25 10 55
10 30 0 55 -5 55 -10z m178 -5 c26 -18 28 -36 7 -54 -13 -11 -14 -15 -1 -29 7
-9 17 -27 20 -41 6 -22 5 -21 -10 5 -20 35 -32 45 -56 45 -14 0 -18 -8 -18
-35 0 -19 -4 -35 -10 -35 -9 0 -13 137 -4 152 8 13 48 9 72 -8z m142 5 c0 -5
-5 -7 -10 -4 -18 11 -50 -6 -50 -26 0 -12 13 -25 35 -36 45 -22 55 -51 25 -75
-25 -20 -48 -23 -70 -7 -11 8 -8 9 15 4 65 -12 87 45 25 67 -42 14 -57 44 -34
69 18 20 64 26 64 8z m-1008 -476 c2 -127 0 -229 -4 -226 -5 2 -7 163 -6 356
1 194 4 296 5 227 2 -69 4 -229 5 -357z m148 473 c0 -2 -8 -10 -17 -17 -16
-13 -17 -12 -4 4 13 16 21 21 21 13z m590 -71 c0 -41 -3 -75 -7 -75 -5 0 -8
34 -8 75 0 41 3 75 8 75 4 0 7 -34 7 -75z m419 3 c17 -39 29 -73 26 -76 -2 -3
-9 7 -14 22 -9 22 -16 26 -50 26 -34 0 -43 -5 -56 -27 -14 -24 -15 -25 -9 -5
10 39 55 132 63 132 5 0 22 -32 40 -72z m-1142 -25 c-3 -10 -5 -4 -5 12 0 17
2 24 5 18 2 -7 2 -21 0 -30z m153 -13 c-6 -11 -13 -20 -16 -20 -2 0 0 9 6 20
6 11 13 20 16 20 2 0 0 -9 -6 -20z m-123 -92 c-3 -7 -5 -2 -5 12 0 14 2 19 5
13 2 -7 2 -19 0 -25z m-20 -75 c-2 -16 -4 -3 -4 27 0 30 2 43 4 28 2 -16 2
-40 0 -55z m50 25 c-3 -8 -6 -5 -6 6 -1 11 2 17 5 13 3 -3 4 -12 1 -19z m731
5 c-27 -4 -28 -6 -28 -73 0 -38 -4 -72 -10 -75 -6 -4 -10 21 -10 69 0 74 0 75
-27 79 -16 2 1 4 37 4 36 0 53 -2 38 -4z m100 0 c-34 -4 -38 -7 -38 -34 0 -26
4 -29 33 -31 l32 -1 -32 -4 c-30 -4 -33 -7 -33 -38 0 -33 2 -34 43 -38 l42 -4
-47 -1 -48 -2 0 80 0 80 43 -2 42 -1 -37 -4z m143 -3 c-44 -10 -62 -30 -63
-69 -1 -41 25 -69 71 -74 l36 -4 -36 -1 c-45 -2 -77 22 -85 64 -8 43 35 94 79
93 l32 -1 -34 -8z m-994 -37 c-3 -10 -5 -4 -5 12 0 17 2 24 5 18 2 -7 2 -21 0
-30z m30 -25 c-3 -8 -6 -5 -6 6 -1 11 2 17 5 13 3 -3 4 -12 1 -19z m-20 -70
c-3 -7 -5 -2 -5 12 0 14 2 19 5 13 2 -7 2 -19 0 -25z m30 10 c-3 -8 -6 -5 -6
6 -1 11 2 17 5 13 3 -3 4 -12 1 -19z m30 -10 c-3 -8 -6 -5 -6 6 -1 11 2 17 5
13 3 -3 4 -12 1 -19z m-90 -85 c-2 -16 -4 -5 -4 22 0 28 2 40 4 28 2 -13 2
-35 0 -50z m40 -15 c-3 -7 -5 -2 -5 12 0 14 2 19 5 13 2 -7 2 -19 0 -25z m10
-90 c-3 -7 -5 -2 -5 12 0 14 2 19 5 13 2 -7 2 -19 0 -25z m-40 -85 c-2 -16 -4
-5 -4 22 0 28 2 40 4 28 2 -13 2 -35 0 -50z m50 -5 c-3 -8 -6 -5 -6 6 -1 11 2
17 5 13 3 -3 4 -12 1 -19z m7 -81 c3 4 6 1 6 -5 0 -8 96 -46 143 -56 7 -2 19
-6 27 -9 42 -17 143 -29 255 -30 69 -1 125 -5 125 -9 0 -14 -236 -8 -320 8
-46 8 -95 17 -109 19 -25 3 -191 91 -191 101 0 2 13 -2 29 -10 16 -9 31 -12
35 -9z"/>
<path d="M1177 1444 c-2 -2 -2 -17 1 -34 3 -24 9 -30 28 -30 25 0 47 29 36 47
-7 10 -58 23 -65 17z"/>
<path d="M1472 1407 c-16 -46 -16 -47 18 -47 17 0 30 2 30 4 0 7 -30 76 -33
76 -2 0 -8 -15 -15 -33z"/>
</g>
</svg>
